# xmcd CD database file
#
# Track frame offsets:
#	150
#	15762
#	36092
#	48640
#	62332
#	70390
#	81721
#	103877
#	117154
#	141230
#	180307
#	189295
#	204749
#	222142
#
# Disc length: 3160 seconds
#
# Revision: 1
# Processed by: cddbd v1.5.2PL0 Copyright (c) Steve Scherf et al.
# Submitted via: CDex 1.70beta2
#
DISCID=c50c560e
DTITLE=Rusconi - It's a sonic life
DYEAR=2010
DGENRE=Jazz
TTITLE0=Sunday
TTITLE1=Hoarfrost
TTITLE2=Schizophrenia
TTITLE3=Karen Revisited
TTITLE4=The destroyed Room
TTITLE5=A Cat goes alone
TTITLE6=Theresa's Sound World
TTITLE7=Skip tracer
TTITLE8=Into the Heart
TTITLE9=Hits of Sunshine (for Allen Ginsberg)
TTITLE10=Secret Girl
TTITLE11=Unmade Bed
TTITLE12=Unwind
TTITLE13=The Wind is blowing
EXTD=YEAR: 2010
EXTT0=
EXTT1=
EXTT2=
EXTT3=
EXTT4=
EXTT5=
EXTT6=
EXTT7=
EXTT8=
EXTT9=
EXTT10=
EXTT11=
EXTT12=
EXTT13=
PLAYORDER=
